<svg width="146" height="38" viewBox="0 0 146 38" fill="none" xmlns="http://www.w3.org/2000/svg">
<path d="M52.7462 19.1075H45.9078V4.72736H52.5957C55.5424 4.72736 57.3412 6.20072 57.3412 8.4405V8.4685C57.3412 10.0888 56.4873 11.0022 55.4549 11.5622C57.1067 12.2096 58.1356 13.1545 58.1356 15.0968V15.1248C58.1391 17.8091 56.0183 19.1075 52.7462 19.1075ZM54.1915 8.99694C54.1915 8.05554 53.4531 7.52359 52.1302 7.52359H49.005V10.5578H51.9237C53.3096 10.5578 54.1915 10.1168 54.1915 9.02494V8.99694V8.99694ZM54.9859 14.7434C54.9859 13.7705 54.279 13.1825 52.6587 13.1825H49.005V16.3357H52.7777C54.1635 16.3357 55.0175 15.8353 55.0175 14.7749V14.7469L54.9859 14.7434ZM61.6178 19.1075V4.72736H64.771V19.1075H61.6178ZM79.0916 19.1075L72.1378 9.97335V19.1075H69.0126V4.72736H71.9313L78.6786 13.599V4.72736H81.8038V19.1075H79.0916ZM96.0089 19.1075L94.6825 15.8948H88.6107L87.2843 19.1075H84.0716L90.231 4.60838H93.1497L99.3091 19.1075H96.0089ZM91.6483 8.437L89.734 13.0915H93.5662L91.6483 8.437ZM111.715 19.1075L104.762 9.97335V19.1075H101.636V4.72736H104.555L111.302 13.599V4.72736H114.428V19.1075H111.715ZM124.829 19.3699C120.584 19.3699 117.462 16.0977 117.462 11.9717V11.9437C117.462 7.84906 120.556 4.51739 124.976 4.51739C127.688 4.51739 129.308 5.43079 130.635 6.72917L128.629 9.05644C127.509 8.05554 126.389 7.4361 124.944 7.4361C122.529 7.4361 120.758 9.4414 120.758 11.9157V11.9437C120.758 14.4179 122.466 16.4512 124.944 16.4512C126.596 16.4512 127.597 15.8038 128.717 14.7714L130.722 16.8047C129.249 18.369 127.628 19.3699 124.829 19.3699ZM133.287 19.1075V4.72736H144.133V7.55509H136.44V10.4738H143.219V13.3015H136.44V16.3357H144.248V19.1634H133.287V19.1075V19.1075ZM80.3025 33.6625C77.3278 33.6625 75.116 31.3633 75.116 28.4165C75.116 25.4978 77.2963 23.1426 80.362 23.1426C82.2483 23.1426 83.3682 23.79 84.3411 24.7349L83.1932 26.0613C82.3672 25.2948 81.5133 24.7944 80.334 24.7944C78.3881 24.7944 76.9743 26.3867 76.9743 28.3885C76.9743 30.3903 78.3881 32.0142 80.334 32.0142C81.5728 32.0142 82.3953 31.5137 83.2527 30.6878L84.4006 31.8357C83.3647 32.9556 82.2168 33.6625 80.3025 33.6625ZM88.5511 29.2145V33.5155H86.7523V23.3175H88.5511V27.5626H93.4122V23.3175H95.211V33.5155H93.4122V29.2145H88.5511ZM108.002 33.4875H106.116L105.084 31.0413H100.278L99.2181 33.4875H97.3913L101.871 23.2335H103.523L108.002 33.4875ZM102.669 25.3823L100.929 29.4489H104.436L102.669 25.3823ZM116.723 33.4875L114.218 29.9529H111.978V33.4875H110.179V23.2895H114.718C117.045 23.2895 118.491 24.5284 118.491 26.5302C118.491 28.2101 117.49 29.2425 116.076 29.6239L118.816 33.484H116.723V33.4875V33.4875ZM114.575 24.9414H111.981V28.3605H114.603C115.869 28.3605 116.695 27.6816 116.695 26.6527C116.695 25.5293 115.901 24.9414 114.575 24.9414ZM123.121 23.321V33.519H121.322V23.321H123.121V23.321ZM130.428 33.4875H128.629V24.9694H125.389V23.3175H133.641V24.9694H130.4V33.4875H130.428ZM141.242 33.4875H139.443V29.4804L135.405 23.321H137.525L140.385 27.8286L143.272 23.321H145.333L141.294 29.4489V33.4875H141.242ZM70.3109 27.5626H45.9113V29.2705H70.3109V27.5626ZM4.56639 14.9219L0.380798 19.1075L4.56639 23.293L8.75199 19.1075L4.56639 14.9219ZM18.9465 8.94095L26.1383 16.1327L30.3239 11.9472L18.95 0.573273L7.57611 11.9472L11.7617 16.1327L18.9465 8.94095ZM33.3266 14.9219L29.141 19.1075L33.3266 23.293L37.5122 19.1075L33.3266 14.9219ZM18.9465 29.302L11.7547 22.1102L7.56911 26.2957L18.943 37.7011L30.3169 26.3272L26.1313 22.1417L18.9465 29.302ZM18.9465 23.321L23.1321 19.1354L18.9465 14.9499L14.7609 19.1354L18.9465 23.321Z" fill="white"/>
</svg>
