<svg xmlns="http://www.w3.org/2000/svg" viewBox="0 0 128 128"><linearGradient id="a" x1="11.862" x2="116.138" y1="11.862" y2="116.138" gradientUnits="userSpaceOnUse"><stop offset="0" stop-color="#F9A038"/><stop offset="1" stop-color="#F47C36"/></linearGradient><path fill="url(#a)" d="M87.5 128h-47C18.1 128 0 109.9 0 87.5v-47C0 18.1 18.1 0 40.5 0h47C109.9 0 128 18.1 128 40.5v47c0 22.4-18.1 40.5-40.5 40.5z"/><path d="M96.3 73.4c-.5-3.6-2.3-6.4-5.4-8.2-1.4-.8-3.1-1.4-4.7-2.1.2-.1.3-.3.4-.3 7.9-4.1 7.2-16.3 1.5-20.5-2.3-1.7-4.9-2.8-7.7-3.4-2-.4-3.9-.7-6-1.1 0-3.5.1-8.5.1-12.4H67c0 3.8-.1 8.7-.1 12.1H61c0-3.5 0-8.3.1-12.1h-7.4c0 4-.1 8.8-.1 12.3-5.1 0-10-.1-15-.1 0 2.7 0 5.3-.1 7.9h3c.9 0 1.9 0 2.8.1 2.6.2 3.9 1.6 3.9 4.2l-.3 31.9c0 2.3-1 3.3-3.3 3.3h-5c-.5 3-1 5.9-1.6 8.9 5 .1 10 .1 15 .2 0 3.8 0 8.7-.1 12.7h7.4c0-4 .1-8.7.1-12.5 2.1.1 4 .1 5.9.2 0 3.8-.1 8.4-.1 12.3h7.4c0-4 .1-8.7.1-12.4.3 0 .5-.1.6-.1 3.5-.6 7.2-.9 10.6-1.7 4.5-1.1 8.1-3.7 9.9-8.2 1.7-3.6 2-7.2 1.5-11zM61 46.3c4.6 0 9.1-.4 13.4 1.5 2.8 1.2 4.2 3.5 4 6.3-.2 2.9-1.9 5-4.8 6-4.1 1.3-8.3 1.3-12.7 1.1 0-5 .1-9.8.1-14.9zm16.2 37.1c-4.1 1.8-8.5 1.8-12.8 1.9-1.2 0-2.4-.1-3.8-.1.1-5.5.1-10.9.2-16.4 5.6 0 11.2-.4 16.5 1.9 2.7 1.2 4.3 3.3 4.3 6.4 0 3.1-1.6 5.1-4.4 6.3z" opacity=".2"/><path fill="#fff" d="M94.3 71.4c-.5-3.6-2.3-6.4-5.4-8.2-1.4-.8-3.1-1.4-4.7-2.1.2-.1.3-.3.4-.3 7.9-4.1 7.2-16.3 1.5-20.5-2.3-1.7-4.9-2.8-7.7-3.4-2-.4-3.9-.7-6-1.1 0-3.5.1-8.5.1-12.4H65c0 3.8-.1 8.7-.1 12.1H59c0-3.5 0-8.3.1-12.1h-7.4c0 4-.1 8.8-.1 12.3-5.1 0-10-.1-15-.1 0 2.7 0 5.3-.1 7.9h3c.9 0 1.9 0 2.8.1 2.6.2 3.9 1.6 3.9 4.2l-.3 31.9c0 2.3-1 3.3-3.3 3.3h-5c-.5 3-1 5.9-1.6 8.9 5 .1 10 .1 15 .2 0 3.8 0 8.7-.1 12.7h7.4c0-4 .1-8.7.1-12.5 2.1.1 4 .1 5.9.2 0 3.8-.1 8.4-.1 12.3h7.4c0-4 .1-8.7.1-12.4.3 0 .5-.1.6-.1 3.5-.6 7.2-.9 10.6-1.7 4.5-1.1 8.1-3.7 9.9-8.2 1.7-3.6 2-7.2 1.5-11zM59 44.3c4.6 0 9.1-.4 13.4 1.5 2.8 1.2 4.2 3.5 4 6.3-.2 2.9-1.9 5-4.8 6-4.1 1.3-8.3 1.3-12.7 1.1 0-5 .1-9.8.1-14.9zm16.2 37.1c-4.1 1.8-8.5 1.8-12.8 1.9-1.2 0-2.4-.1-3.8-.1.1-5.5.1-10.9.2-16.4 5.6 0 11.2-.4 16.5 1.9 2.7 1.2 4.3 3.3 4.3 6.4 0 3.1-1.6 5.1-4.4 6.3z"/></svg>