<svg xmlns="http://www.w3.org/2000/svg" fill-rule="evenodd" stroke-linejoin="round" stroke-miterlimit="2" clip-rule="evenodd" viewBox="0 0 32 32"><path d="M15.5,4.414l-0,1.297l-3.647,2.106l-1.213,-2.1c0.402,-0.47 0.485,-1.16 0.159,-1.725c-0.414,-0.717 -1.332,-0.963 -2.049,-0.549c-0.717,0.414 -0.963,1.332 -0.549,2.049c0.326,0.565 0.966,0.837 1.573,0.725l1.213,2.1l-3.647,2.106l-1.123,-0.649c0.112,-0.607 -0.16,-1.247 -0.725,-1.573c-0.717,-0.414 -1.635,-0.168 -2.049,0.549c-0.414,0.717 -0.168,1.635 0.549,2.049c0.565,0.326 1.255,0.243 1.725,-0.159l1.123,0.649l-0,4.211l-2.426,0c-0.206,-0.582 -0.761,-1 -1.414,-1c-0.828,0 -1.5,0.672 -1.5,1.5c-0,0.828 0.672,1.5 1.5,1.5c0.653,0 1.208,-0.418 1.414,-1l2.426,0l-0,4.211l-1.123,0.649c-0.47,-0.402 -1.16,-0.485 -1.725,-0.159c-0.717,0.414 -0.963,1.332 -0.549,2.049c0.414,0.717 1.332,0.963 2.049,0.549c0.565,-0.326 0.837,-0.966 0.725,-1.573l1.123,-0.649l3.647,2.106l-1.213,2.1c-0.607,-0.112 -1.247,0.16 -1.573,0.725c-0.414,0.717 -0.168,1.635 0.549,2.049c0.717,0.414 1.635,0.168 2.049,-0.549c0.326,-0.565 0.243,-1.255 -0.159,-1.725l1.213,-2.1l3.647,2.106l0,1.297c-0.582,0.206 -1,0.761 -1,1.414c0,0.828 0.672,1.5 1.5,1.5c0.828,-0 1.5,-0.672 1.5,-1.5c0,-0.653 -0.418,-1.208 -1,-1.414l-0,-1.297l3.647,-2.106l1.213,2.1c-0.402,0.47 -0.485,1.16 -0.159,1.725c0.414,0.717 1.332,0.963 2.049,0.549c0.717,-0.414 0.963,-1.332 0.549,-2.049c-0.326,-0.565 -0.966,-0.837 -1.573,-0.725l-1.213,-2.1l3.647,-2.106l1.123,0.649c-0.112,0.607 0.16,1.247 0.725,1.573c0.717,0.414 1.635,0.168 2.049,-0.549c0.414,-0.717 0.168,-1.635 -0.549,-2.049c-0.565,-0.326 -1.255,-0.243 -1.725,0.159l-1.123,-0.649l0,-4.211l2.426,0c0.206,0.582 0.761,1 1.414,1c0.828,0 1.5,-0.672 1.5,-1.5c0,-0.828 -0.672,-1.5 -1.5,-1.5c-0.653,0 -1.208,0.418 -1.414,1l-2.426,0l0,-4.211l1.123,-0.649c0.47,0.402 1.16,0.485 1.725,0.159c0.717,-0.414 0.963,-1.332 0.549,-2.049c-0.414,-0.717 -1.332,-0.963 -2.049,-0.549c-0.565,0.326 -0.837,0.966 -0.725,1.573l-1.123,0.649l-3.647,-2.106l1.213,-2.1c0.607,0.112 1.247,-0.16 1.573,-0.725c0.414,-0.717 0.168,-1.635 -0.549,-2.049c-0.717,-0.414 -1.635,-0.168 -2.049,0.549c-0.326,0.565 -0.243,1.255 0.159,1.725l-1.213,2.1l-3.647,-2.106l0,-1.297c0.582,-0.206 1,-0.761 1,-1.414c0,-0.828 -0.672,-1.5 -1.5,-1.5c-0.828,0 -1.5,0.672 -1.5,1.5c0,0.653 0.418,1.208 1,1.414Zm0.5,25.086c-0.276,-0 -0.5,-0.224 -0.5,-0.5c0,-0.276 0.224,-0.5 0.5,-0.5c0.276,-0 0.5,0.224 0.5,0.5c0,0.276 -0.224,0.5 -0.5,0.5Zm6.933,-2.492c0.138,0.239 0.056,0.545 -0.183,0.683c-0.239,0.138 -0.545,0.056 -0.683,-0.183c-0.138,-0.239 -0.056,-0.545 0.183,-0.683c0.239,-0.138 0.545,-0.056 0.683,0.183Zm-13.866,0c0.138,-0.239 0.444,-0.321 0.683,-0.183c0.239,0.138 0.321,0.444 0.183,0.683c-0.138,0.239 -0.444,0.321 -0.683,0.183c-0.239,-0.138 -0.321,-0.444 -0.183,-0.683Zm6.933,-20.431l8.16,4.712c0,-0 0,9.422 0,9.422c0,0 -8.16,4.712 -8.16,4.712c0,-0 -8.16,-4.712 -8.16,-4.712c-0,0 -0,-9.422 -0,-9.422l8.16,-4.712Zm0.25,0.99c-0.155,-0.089 -0.345,-0.089 -0.5,-0l-6.928,4c-0.155,0.089 -0.25,0.254 -0.25,0.433l-0,8c-0,0.179 0.095,0.344 0.25,0.433l6.928,4c0.155,0.089 0.345,0.089 0.5,0l6.928,-4c0.155,-0.089 0.25,-0.254 0.25,-0.433l0,-8c0,-0.179 -0.095,-0.344 -0.25,-0.433l-6.928,-4Zm11.441,15.183c-0.138,0.239 -0.444,0.321 -0.683,0.183c-0.239,-0.138 -0.321,-0.444 -0.183,-0.683c0.138,-0.239 0.444,-0.321 0.683,-0.183c0.239,0.138 0.321,0.444 0.183,0.683Zm-23.382,0c-0.138,-0.239 -0.056,-0.545 0.183,-0.683c0.239,-0.138 0.545,-0.056 0.683,0.183c0.138,0.239 0.056,0.545 -0.183,0.683c-0.239,0.138 -0.545,0.056 -0.683,-0.183Zm7.191,-4.75l0,-1.882c0,0 1.053,2.106 1.053,2.106c0.103,0.207 0.336,0.316 0.562,0.263c0.226,-0.054 0.385,-0.255 0.385,-0.487l0,-4c-0,-0.276 -0.224,-0.5 -0.5,-0.5c-0.276,0 -0.5,0.224 -0.5,0.5l0,1.882c-0,-0 -1.053,-2.106 -1.053,-2.106c-0.103,-0.207 -0.336,-0.316 -0.562,-0.263c-0.226,0.054 -0.385,0.255 -0.385,0.487l0,4c0,0.276 0.224,0.5 0.5,0.5c0.276,-0 0.5,-0.224 0.5,-0.5Zm8,-3.5l0,3.5c0,0.276 0.224,0.5 0.5,0.5c0.276,-0 0.5,-0.224 0.5,-0.5l0,-3.5l0.5,0c0.276,-0 0.5,-0.224 0.5,-0.5c-0,-0.276 -0.224,-0.5 -0.5,-0.5l-2,0c-0.276,-0 -0.5,0.224 -0.5,0.5c-0,0.276 0.224,0.5 0.5,0.5l0.5,0Zm-4,2l0.5,0c0.276,-0 0.5,-0.224 0.5,-0.5c-0,-0.276 -0.224,-0.5 -0.5,-0.5l-0.5,0l0,-1c0,0 1.5,0 1.5,0c0.276,-0 0.5,-0.224 0.5,-0.5c-0,-0.276 -0.224,-0.5 -0.5,-0.5l-2,0c-0.276,0 -0.5,0.224 -0.5,0.5l0,4c0,0.276 0.224,0.5 0.5,0.5c0.276,-0 0.5,-0.224 0.5,-0.5l0,-1.5Zm-12.5,-1c0.276,0 0.5,0.224 0.5,0.5c0,0.276 -0.224,0.5 -0.5,0.5c-0.276,0 -0.5,-0.224 -0.5,-0.5c0,-0.276 0.224,-0.5 0.5,-0.5Zm26,0c0.276,0 0.5,0.224 0.5,0.5c0,0.276 -0.224,0.5 -0.5,0.5c-0.276,0 -0.5,-0.224 -0.5,-0.5c0,-0.276 0.224,-0.5 0.5,-0.5Zm-24.691,-6.25c0.138,-0.239 0.444,-0.321 0.683,-0.183c0.239,0.138 0.321,0.444 0.183,0.683c-0.138,0.239 -0.444,0.321 -0.683,0.183c-0.239,-0.138 -0.321,-0.444 -0.183,-0.683Zm23.382,0c0.138,0.239 0.056,0.545 -0.183,0.683c-0.239,0.138 -0.545,0.056 -0.683,-0.183c-0.138,-0.239 -0.056,-0.545 0.183,-0.683c0.239,-0.138 0.545,-0.056 0.683,0.183Zm-17.758,-4.758c0.138,0.239 0.056,0.545 -0.183,0.683c-0.239,0.138 -0.545,0.056 -0.683,-0.183c-0.138,-0.239 -0.056,-0.545 0.183,-0.683c0.239,-0.138 0.545,-0.056 0.683,0.183Zm12.134,-0c0.138,-0.239 0.444,-0.321 0.683,-0.183c0.239,0.138 0.321,0.444 0.183,0.683c-0.138,0.239 -0.444,0.321 -0.683,0.183c-0.239,-0.138 -0.321,-0.444 -0.183,-0.683Zm-6.067,-1.992c0.276,0 0.5,0.224 0.5,0.5c-0,0.276 -0.224,0.5 -0.5,0.5c-0.276,0 -0.5,-0.224 -0.5,-0.5c-0,-0.276 0.224,-0.5 0.5,-0.5Z"/></svg>