<svg width="22" height="22" viewBox="0 0 22 22" fill="none" xmlns="http://www.w3.org/2000/svg">
<rect width="22" height="22" rx="11" fill="url(#paint0_linear_14_73)"/>
<path d="M12.8213 4.27777C10.6765 4.27777 8.89416 5.86203 8.58177 7.92324H5.85116C5.32121 7.92324 4.88889 8.35277 4.88889 8.88551V15.5377C4.88889 16.0677 5.31842 16.5 5.85116 16.5H12.5034C13.0333 16.5 13.4656 16.0705 13.4656 15.5377V12.8071C15.5268 12.4975 17.1111 10.7124 17.1111 8.56754C17.1083 6.20231 15.1838 4.27777 12.8213 4.27777ZM13.4628 11.499V9.4294C13.9398 9.07517 14.0374 8.40019 13.6832 7.92603C13.329 7.44908 12.654 7.35146 12.1798 7.70568C11.7029 8.05991 11.6052 8.73489 11.9595 9.20906C12.0208 9.29273 12.0961 9.36525 12.1798 9.4294V15.2114H6.1747V9.20627H8.53435V11.3456C8.0574 11.6998 7.95978 12.3748 8.31401 12.8489C8.66824 13.3259 9.34322 13.4235 9.81738 13.0693C10.2943 12.7151 10.392 12.0401 10.0377 11.5659C9.97636 11.4822 9.90106 11.4097 9.81738 11.3456V8.56196C9.81738 6.90519 11.1618 5.5608 12.8185 5.5608C14.4753 5.5608 15.8225 6.90798 15.8225 8.56475C15.8225 9.97608 14.8407 11.195 13.4628 11.499Z" fill="url(#paint1_linear_14_73)"/>
<defs>
<linearGradient id="paint0_linear_14_73" x1="0" y1="22" x2="22" y2="0" gradientUnits="userSpaceOnUse">
<stop stop-color="#00CF91"/>
<stop offset="1" stop-color="#32FFB4"/>
</linearGradient>
<linearGradient id="paint1_linear_14_73" x1="4.88889" y1="16.5" x2="17.3987" y2="16.1982" gradientUnits="userSpaceOnUse">
<stop stop-color="#0000A3"/>
<stop offset="1" stop-color="#2F2FF2"/>
</linearGradient>
</defs>
</svg>
